<svg xmlns="http://www.w3.org/2000/svg" viewBox="0 0 800 1200" preserveAspectRatio="xMidYMid slice">
  <defs>
    <filter id="hexGlow" x="-50%" y="-50%" width="200%" height="200%">
      <feGaussianBlur stdDeviation="5" result="blur" />
      <feMerge>
        <feMergeNode in="blur" />
        <feMergeNode in="SourceGraphic" />
      </feMerge>
    </filter>
  </defs>
  <g fill="none" stroke="oklch(0.58 0.22 27)" stroke-width="1.4" opacity="0.16">
    <polygon points="-23.0,-69.0 -46.0,-29.2 -92.0,-29.2 -115.0,-69.0 -92.0,-108.8 -46.0,-108.8" />
    <polygon points="-23.0,10.7 -46.0,50.5 -92.0,50.5 -115.0,10.7 -92.0,-29.2 -46.0,-29.2" />
    <polygon points="-23.0,90.3 -46.0,130.2 -92.0,130.2 -115.0,90.3 -92.0,50.5 -46.0,50.5" />
    <polygon points="-23.0,170.0 -46.0,209.9 -92.0,209.9 -115.0,170.0 -92.0,130.2 -46.0,130.2" />
    <polygon points="-23.0,249.7 -46.0,289.5 -92.0,289.5 -115.0,249.7 -92.0,209.9 -46.0,209.9" />
    <polygon points="-23.0,329.4 -46.0,369.2 -92.0,369.2 -115.0,329.4 -92.0,289.5 -46.0,289.5" />
    <polygon points="-23.0,409.0 -46.0,448.9 -92.0,448.9 -115.0,409.0 -92.0,369.2 -46.0,369.2" />
    <polygon points="-23.0,568.4 -46.0,608.2 -92.0,608.2 -115.0,568.4 -92.0,528.6 -46.0,528.6" />
    <polygon points="-23.0,648.1 -46.0,687.9 -92.0,687.9 -115.0,648.1 -92.0,608.2 -46.0,608.2" />
    <polygon points="-23.0,727.7 -46.0,767.6 -92.0,767.6 -115.0,727.7 -92.0,687.9 -46.0,687.9" />
    <polygon points="-23.0,807.4 -46.0,847.3 -92.0,847.3 -115.0,807.4 -92.0,767.6 -46.0,767.6" />
    <polygon points="-23.0,887.1 -46.0,926.9 -92.0,926.9 -115.0,887.1 -92.0,847.3 -46.0,847.3" />
    <polygon points="-23.0,966.8 -46.0,1006.6 -92.0,1006.6 -115.0,966.8 -92.0,926.9 -46.0,926.9" />
    <polygon points="-23.0,1046.4 -46.0,1086.3 -92.0,1086.3 -115.0,1046.4 -92.0,1006.6 -46.0,1006.6" />
    <polygon points="-23.0,1126.1 -46.0,1166.0 -92.0,1166.0 -115.0,1126.1 -92.0,1086.3 -46.0,1086.3" />
    <polygon points="-23.0,1205.8 -46.0,1245.6 -92.0,1245.6 -115.0,1205.8 -92.0,1166.0 -46.0,1166.0" />
    <polygon points="46.0,-29.2 23.0,10.7 -23.0,10.7 -46.0,-29.2 -23.0,-69.0 23.0,-69.0" />
    <polygon points="46.0,50.5 23.0,90.3 -23.0,90.3 -46.0,50.5 -23.0,10.7 23.0,10.7" />
    <polygon points="46.0,130.2 23.0,170.0 -23.0,170.0 -46.0,130.2 -23.0,90.3 23.0,90.3" />
    <polygon points="46.0,209.9 23.0,249.7 -23.0,249.7 -46.0,209.9 -23.0,170.0 23.0,170.0" />
    <polygon points="46.0,289.5 23.0,329.4 -23.0,329.4 -46.0,289.5 -23.0,249.7 23.0,249.7" />
    <polygon points="46.0,369.2 23.0,409.0 -23.0,409.0 -46.0,369.2 -23.0,329.4 23.0,329.4" />
    <polygon points="46.0,448.9 23.0,488.7 -23.0,488.7 -46.0,448.9 -23.0,409.0 23.0,409.0" />
    <polygon points="46.0,528.6 23.0,568.4 -23.0,568.4 -46.0,528.6 -23.0,488.7 23.0,488.7" />
    <polygon points="46.0,687.9 23.0,727.7 -23.0,727.7 -46.0,687.9 -23.0,648.1 23.0,648.1" />
    <polygon points="46.0,767.6 23.0,807.4 -23.0,807.4 -46.0,767.6 -23.0,727.7 23.0,727.7" />
    <polygon points="46.0,847.3 23.0,887.1 -23.0,887.1 -46.0,847.3 -23.0,807.4 23.0,807.4" />
    <polygon points="46.0,926.9 23.0,966.8 -23.0,966.8 -46.0,926.9 -23.0,887.1 23.0,887.1" />
    <polygon points="46.0,1006.6 23.0,1046.4 -23.0,1046.4 -46.0,1006.6 -23.0,966.8 23.0,966.8" />
    <polygon points="46.0,1086.3 23.0,1126.1 -23.0,1126.1 -46.0,1086.3 -23.0,1046.4 23.0,1046.4" />
    <polygon points="46.0,1166.0 23.0,1205.8 -23.0,1205.8 -46.0,1166.0 -23.0,1126.1 23.0,1126.1" />
    <polygon points="46.0,1245.6 23.0,1285.5 -23.0,1285.5 -46.0,1245.6 -23.0,1205.8 23.0,1205.8" />
    <polygon points="115.0,-69.0 92.0,-29.2 46.0,-29.2 23.0,-69.0 46.0,-108.8 92.0,-108.8" />
    <polygon points="115.0,10.7 92.0,50.5 46.0,50.5 23.0,10.7 46.0,-29.2 92.0,-29.2" />
    <polygon points="115.0,90.3 92.0,130.2 46.0,130.2 23.0,90.3 46.0,50.5 92.0,50.5" />
    <polygon points="115.0,170.0 92.0,209.9 46.0,209.9 23.0,170.0 46.0,130.2 92.0,130.2" />
    <polygon points="115.0,249.7 92.0,289.5 46.0,289.5 23.0,249.7 46.0,209.9 92.0,209.9" />
    <polygon points="115.0,409.0 92.0,448.9 46.0,448.9 23.0,409.0 46.0,369.2 92.0,369.2" />
    <polygon points="115.0,488.7 92.0,528.6 46.0,528.6 23.0,488.7 46.0,448.9 92.0,448.9" />
    <polygon points="115.0,568.4 92.0,608.2 46.0,608.2 23.0,568.4 46.0,528.6 92.0,528.6" />
    <polygon points="115.0,648.1 92.0,687.9 46.0,687.9 23.0,648.1 46.0,608.2 92.0,608.2" />
    <polygon points="115.0,727.7 92.0,767.6 46.0,767.6 23.0,727.7 46.0,687.9 92.0,687.9" />
    <polygon points="115.0,807.4 92.0,847.3 46.0,847.3 23.0,807.4 46.0,767.6 92.0,767.6" />
    <polygon points="115.0,887.1 92.0,926.9 46.0,926.9 23.0,887.1 46.0,847.3 92.0,847.3" />
    <polygon points="115.0,966.8 92.0,1006.6 46.0,1006.6 23.0,966.8 46.0,926.9 92.0,926.9" />
    <polygon points="115.0,1046.4 92.0,1086.3 46.0,1086.3 23.0,1046.4 46.0,1006.6 92.0,1006.6" />
    <polygon points="115.0,1126.1 92.0,1166.0 46.0,1166.0 23.0,1126.1 46.0,1086.3 92.0,1086.3" />
    <polygon points="115.0,1205.8 92.0,1245.6 46.0,1245.6 23.0,1205.8 46.0,1166.0 92.0,1166.0" />
    <polygon points="184.0,-29.2 161.0,10.7 115.0,10.7 92.0,-29.2 115.0,-69.0 161.0,-69.0" />
    <polygon points="184.0,50.5 161.0,90.3 115.0,90.3 92.0,50.5 115.0,10.7 161.0,10.7" />
    <polygon points="184.0,130.2 161.0,170.0 115.0,170.0 92.0,130.2 115.0,90.3 161.0,90.3" />
    <polygon points="184.0,209.9 161.0,249.7 115.0,249.7 92.0,209.9 115.0,170.0 161.0,170.0" />
    <polygon points="184.0,289.5 161.0,329.4 115.0,329.4 92.0,289.5 115.0,249.7 161.0,249.7" />
    <polygon points="184.0,369.2 161.0,409.0 115.0,409.0 92.0,369.2 115.0,329.4 161.0,329.4" />
    <polygon points="184.0,448.9 161.0,488.7 115.0,488.7 92.0,448.9 115.0,409.0 161.0,409.0" />
    <polygon points="184.0,528.6 161.0,568.4 115.0,568.4 92.0,528.6 115.0,488.7 161.0,488.7" />
    <polygon points="184.0,608.2 161.0,648.1 115.0,648.1 92.0,608.2 115.0,568.4 161.0,568.4" />
    <polygon points="184.0,687.9 161.0,727.7 115.0,727.7 92.0,687.9 115.0,648.1 161.0,648.1" />
    <polygon points="184.0,767.6 161.0,807.4 115.0,807.4 92.0,767.6 115.0,727.7 161.0,727.7" />
    <polygon points="184.0,847.3 161.0,887.1 115.0,887.1 92.0,847.3 115.0,807.4 161.0,807.4" />
    <polygon points="184.0,926.9 161.0,966.8 115.0,966.8 92.0,926.9 115.0,887.1 161.0,887.1" />
    <polygon points="184.0,1006.6 161.0,1046.4 115.0,1046.4 92.0,1006.6 115.0,966.8 161.0,966.8" />
    <polygon points="184.0,1086.3 161.0,1126.1 115.0,1126.1 92.0,1086.3 115.0,1046.4 161.0,1046.4" />
    <polygon points="184.0,1166.0 161.0,1205.8 115.0,1205.8 92.0,1166.0 115.0,1126.1 161.0,1126.1" />
    <polygon points="184.0,1245.6 161.0,1285.5 115.0,1285.5 92.0,1245.6 115.0,1205.8 161.0,1205.8" />
    <polygon points="253.0,-69.0 230.0,-29.2 184.0,-29.2 161.0,-69.0 184.0,-108.8 230.0,-108.8" />
    <polygon points="253.0,10.7 230.0,50.5 184.0,50.5 161.0,10.7 184.0,-29.2 230.0,-29.2" />
    <polygon points="253.0,249.7 230.0,289.5 184.0,289.5 161.0,249.7 184.0,209.9 230.0,209.9" />
    <polygon points="253.0,329.4 230.0,369.2 184.0,369.2 161.0,329.4 184.0,289.5 230.0,289.5" />
    <polygon points="253.0,409.0 230.0,448.9 184.0,448.9 161.0,409.0 184.0,369.2 230.0,369.2" />
    <polygon points="253.0,488.7 230.0,528.6 184.0,528.6 161.0,488.7 184.0,448.9 230.0,448.9" />
    <polygon points="253.0,568.4 230.0,608.2 184.0,608.2 161.0,568.4 184.0,528.6 230.0,528.6" />
    <polygon points="253.0,648.1 230.0,687.9 184.0,687.9 161.0,648.1 184.0,608.2 230.0,608.2" />
    <polygon points="253.0,727.7 230.0,767.6 184.0,767.6 161.0,727.7 184.0,687.9 230.0,687.9" />
    <polygon points="253.0,807.4 230.0,847.3 184.0,847.3 161.0,807.4 184.0,767.6 230.0,767.6" />
    <polygon points="253.0,887.1 230.0,926.9 184.0,926.9 161.0,887.1 184.0,847.3 230.0,847.3" />
    <polygon points="253.0,966.8 230.0,1006.6 184.0,1006.6 161.0,966.8 184.0,926.9 230.0,926.9" />
    <polygon points="253.0,1046.4 230.0,1086.3 184.0,1086.3 161.0,1046.4 184.0,1006.6 230.0,1006.6" />
    <polygon points="253.0,1126.1 230.0,1166.0 184.0,1166.0 161.0,1126.1 184.0,1086.3 230.0,1086.3" />
    <polygon points="253.0,1205.8 230.0,1245.6 184.0,1245.6 161.0,1205.8 184.0,1166.0 230.0,1166.0" />
    <polygon points="322.0,-29.2 299.0,10.7 253.0,10.7 230.0,-29.2 253.0,-69.0 299.0,-69.0" />
    <polygon points="322.0,50.5 299.0,90.3 253.0,90.3 230.0,50.5 253.0,10.7 299.0,10.7" />
    <polygon points="322.0,130.2 299.0,170.0 253.0,170.0 230.0,130.2 253.0,90.3 299.0,90.3" />
    <polygon points="322.0,209.9 299.0,249.7 253.0,249.7 230.0,209.9 253.0,170.0 299.0,170.0" />
    <polygon points="322.0,289.5 299.0,329.4 253.0,329.4 230.0,289.5 253.0,249.7 299.0,249.7" />
    <polygon points="322.0,369.2 299.0,409.0 253.0,409.0 230.0,369.2 253.0,329.4 299.0,329.4" />
    <polygon points="322.0,448.9 299.0,488.7 253.0,488.7 230.0,448.9 253.0,409.0 299.0,409.0" />
    <polygon points="322.0,528.6 299.0,568.4 253.0,568.4 230.0,528.6 253.0,488.7 299.0,488.7" />
    <polygon points="322.0,608.2 299.0,648.1 253.0,648.1 230.0,608.2 253.0,568.4 299.0,568.4" />
    <polygon points="322.0,687.9 299.0,727.7 253.0,727.7 230.0,687.9 253.0,648.1 299.0,648.1" />
    <polygon points="322.0,767.6 299.0,807.4 253.0,807.4 230.0,767.6 253.0,727.7 299.0,727.7" />
    <polygon points="322.0,847.3 299.0,887.1 253.0,887.1 230.0,847.3 253.0,807.4 299.0,807.4" />
    <polygon points="322.0,926.9 299.0,966.8 253.0,966.8 230.0,926.9 253.0,887.1 299.0,887.1" />
    <polygon points="322.0,1006.6 299.0,1046.4 253.0,1046.4 230.0,1006.6 253.0,966.8 299.0,966.8" />
    <polygon points="322.0,1086.3 299.0,1126.1 253.0,1126.1 230.0,1086.3 253.0,1046.4 299.0,1046.4" />
    <polygon points="322.0,1166.0 299.0,1205.8 253.0,1205.8 230.0,1166.0 253.0,1126.1 299.0,1126.1" />
    <polygon points="322.0,1245.6 299.0,1285.5 253.0,1285.5 230.0,1245.6 253.0,1205.8 299.0,1205.8" />
    <polygon points="391.0,-69.0 368.0,-29.2 322.0,-29.2 299.0,-69.0 322.0,-108.8 368.0,-108.8" />
    <polygon points="391.0,10.7 368.0,50.5 322.0,50.5 299.0,10.7 322.0,-29.2 368.0,-29.2" />
    <polygon points="391.0,90.3 368.0,130.2 322.0,130.2 299.0,90.3 322.0,50.5 368.0,50.5" />
    <polygon points="391.0,170.0 368.0,209.9 322.0,209.9 299.0,170.0 322.0,130.2 368.0,130.2" />
    <polygon points="391.0,249.7 368.0,289.5 322.0,289.5 299.0,249.7 322.0,209.9 368.0,209.9" />
    <polygon points="391.0,329.4 368.0,369.2 322.0,369.2 299.0,329.4 322.0,289.5 368.0,289.5" />
    <polygon points="391.0,409.0 368.0,448.9 322.0,448.9 299.0,409.0 322.0,369.2 368.0,369.2" />
    <polygon points="391.0,488.7 368.0,528.6 322.0,528.6 299.0,488.7 322.0,448.9 368.0,448.9" />
    <polygon points="391.0,568.4 368.0,608.2 322.0,608.2 299.0,568.4 322.0,528.6 368.0,528.6" />
    <polygon points="391.0,648.1 368.0,687.9 322.0,687.9 299.0,648.1 322.0,608.2 368.0,608.2" />
    <polygon points="391.0,727.7 368.0,767.6 322.0,767.6 299.0,727.7 322.0,687.9 368.0,687.9" />
    <polygon points="391.0,807.4 368.0,847.3 322.0,847.3 299.0,807.4 322.0,767.6 368.0,767.6" />
    <polygon points="391.0,887.1 368.0,926.9 322.0,926.9 299.0,887.1 322.0,847.3 368.0,847.3" />
    <polygon points="391.0,966.8 368.0,1006.6 322.0,1006.6 299.0,966.8 322.0,926.9 368.0,926.9" />
    <polygon points="391.0,1046.4 368.0,1086.3 322.0,1086.3 299.0,1046.4 322.0,1006.6 368.0,1006.6" />
    <polygon points="391.0,1126.1 368.0,1166.0 322.0,1166.0 299.0,1126.1 322.0,1086.3 368.0,1086.3" />
    <polygon points="391.0,1205.8 368.0,1245.6 322.0,1245.6 299.0,1205.8 322.0,1166.0 368.0,1166.0" />
    <polygon points="460.0,-29.2 437.0,10.7 391.0,10.7 368.0,-29.2 391.0,-69.0 437.0,-69.0" />
    <polygon points="460.0,50.5 437.0,90.3 391.0,90.3 368.0,50.5 391.0,10.7 437.0,10.7" />
    <polygon points="460.0,130.2 437.0,170.0 391.0,170.0 368.0,130.2 391.0,90.3 437.0,90.3" />
    <polygon points="460.0,209.9 437.0,249.7 391.0,249.7 368.0,209.9 391.0,170.0 437.0,170.0" />
    <polygon points="460.0,289.5 437.0,329.4 391.0,329.4 368.0,289.5 391.0,249.7 437.0,249.7" />
    <polygon points="460.0,369.2 437.0,409.0 391.0,409.0 368.0,369.2 391.0,329.4 437.0,329.4" />
    <polygon points="460.0,448.9 437.0,488.7 391.0,488.7 368.0,448.9 391.0,409.0 437.0,409.0" />
    <polygon points="460.0,528.6 437.0,568.4 391.0,568.4 368.0,528.6 391.0,488.7 437.0,488.7" />
    <polygon points="460.0,608.2 437.0,648.1 391.0,648.1 368.0,608.2 391.0,568.4 437.0,568.4" />
    <polygon points="460.0,687.9 437.0,727.7 391.0,727.7 368.0,687.9 391.0,648.1 437.0,648.1" />
    <polygon points="460.0,767.6 437.0,807.4 391.0,807.4 368.0,767.6 391.0,727.7 437.0,727.7" />
    <polygon points="460.0,847.3 437.0,887.1 391.0,887.1 368.0,847.3 391.0,807.4 437.0,807.4" />
    <polygon points="460.0,926.9 437.0,966.8 391.0,966.8 368.0,926.9 391.0,887.1 437.0,887.1" />
    <polygon points="460.0,1006.6 437.0,1046.4 391.0,1046.4 368.0,1006.6 391.0,966.8 437.0,966.8" />
    <polygon points="460.0,1086.3 437.0,1126.1 391.0,1126.1 368.0,1086.3 391.0,1046.4 437.0,1046.4" />
    <polygon points="460.0,1166.0 437.0,1205.8 391.0,1205.8 368.0,1166.0 391.0,1126.1 437.0,1126.1" />
    <polygon points="460.0,1245.6 437.0,1285.5 391.0,1285.5 368.0,1245.6 391.0,1205.8 437.0,1205.8" />
    <polygon points="529.0,10.7 506.0,50.5 460.0,50.5 437.0,10.7 460.0,-29.2 506.0,-29.2" />
    <polygon points="529.0,90.3 506.0,130.2 460.0,130.2 437.0,90.3 460.0,50.5 506.0,50.5" />
    <polygon points="529.0,170.0 506.0,209.9 460.0,209.9 437.0,170.0 460.0,130.2 506.0,130.2" />
    <polygon points="529.0,249.7 506.0,289.5 460.0,289.5 437.0,249.7 460.0,209.9 506.0,209.9" />
    <polygon points="529.0,329.4 506.0,369.2 460.0,369.2 437.0,329.4 460.0,289.5 506.0,289.5" />
    <polygon points="529.0,409.0 506.0,448.9 460.0,448.9 437.0,409.0 460.0,369.2 506.0,369.2" />
    <polygon points="529.0,488.7 506.0,528.6 460.0,528.6 437.0,488.7 460.0,448.9 506.0,448.9" />
    <polygon points="529.0,568.4 506.0,608.2 460.0,608.2 437.0,568.4 460.0,528.6 506.0,528.6" />
    <polygon points="529.0,648.1 506.0,687.9 460.0,687.9 437.0,648.1 460.0,608.2 506.0,608.2" />
    <polygon points="529.0,727.7 506.0,767.6 460.0,767.6 437.0,727.7 460.0,687.9 506.0,687.9" />
    <polygon points="529.0,807.4 506.0,847.3 460.0,847.3 437.0,807.4 460.0,767.6 506.0,767.6" />
    <polygon points="529.0,887.1 506.0,926.9 460.0,926.9 437.0,887.1 460.0,847.3 506.0,847.3" />
    <polygon points="529.0,966.8 506.0,1006.6 460.0,1006.6 437.0,966.8 460.0,926.9 506.0,926.9" />
    <polygon points="529.0,1046.4 506.0,1086.3 460.0,1086.3 437.0,1046.4 460.0,1006.6 506.0,1006.6" />
    <polygon points="529.0,1126.1 506.0,1166.0 460.0,1166.0 437.0,1126.1 460.0,1086.3 506.0,1086.3" />
    <polygon points="529.0,1205.8 506.0,1245.6 460.0,1245.6 437.0,1205.8 460.0,1166.0 506.0,1166.0" />
    <polygon points="598.0,-29.2 575.0,10.7 529.0,10.7 506.0,-29.2 529.0,-69.0 575.0,-69.0" />
    <polygon points="598.0,50.5 575.0,90.3 529.0,90.3 506.0,50.5 529.0,10.7 575.0,10.7" />
    <polygon points="598.0,130.2 575.0,170.0 529.0,170.0 506.0,130.2 529.0,90.3 575.0,90.3" />
    <polygon points="598.0,209.9 575.0,249.7 529.0,249.7 506.0,209.9 529.0,170.0 575.0,170.0" />
    <polygon points="598.0,289.5 575.0,329.4 529.0,329.4 506.0,289.5 529.0,249.7 575.0,249.7" />
    <polygon points="598.0,369.2 575.0,409.0 529.0,409.0 506.0,369.2 529.0,329.4 575.0,329.4" />
    <polygon points="598.0,448.9 575.0,488.7 529.0,488.7 506.0,448.9 529.0,409.0 575.0,409.0" />
    <polygon points="598.0,528.6 575.0,568.4 529.0,568.4 506.0,528.6 529.0,488.7 575.0,488.7" />
    <polygon points="598.0,608.2 575.0,648.1 529.0,648.1 506.0,608.2 529.0,568.4 575.0,568.4" />
    <polygon points="598.0,687.9 575.0,727.7 529.0,727.7 506.0,687.9 529.0,648.1 575.0,648.1" />
    <polygon points="598.0,767.6 575.0,807.4 529.0,807.4 506.0,767.6 529.0,727.7 575.0,727.7" />
    <polygon points="598.0,847.3 575.0,887.1 529.0,887.1 506.0,847.3 529.0,807.4 575.0,807.4" />
    <polygon points="598.0,926.9 575.0,966.8 529.0,966.8 506.0,926.9 529.0,887.1 575.0,887.1" />
    <polygon points="598.0,1006.6 575.0,1046.4 529.0,1046.4 506.0,1006.6 529.0,966.8 575.0,966.8" />
    <polygon points="598.0,1086.3 575.0,1126.1 529.0,1126.1 506.0,1086.3 529.0,1046.4 575.0,1046.4" />
    <polygon points="598.0,1166.0 575.0,1205.8 529.0,1205.8 506.0,1166.0 529.0,1126.1 575.0,1126.1" />
    <polygon points="598.0,1245.6 575.0,1285.5 529.0,1285.5 506.0,1245.6 529.0,1205.8 575.0,1205.8" />
    <polygon points="667.0,-69.0 644.0,-29.2 598.0,-29.2 575.0,-69.0 598.0,-108.8 644.0,-108.8" />
    <polygon points="667.0,10.7 644.0,50.5 598.0,50.5 575.0,10.7 598.0,-29.2 644.0,-29.2" />
    <polygon points="667.0,90.3 644.0,130.2 598.0,130.2 575.0,90.3 598.0,50.5 644.0,50.5" />
    <polygon points="667.0,249.7 644.0,289.5 598.0,289.5 575.0,249.7 598.0,209.9 644.0,209.9" />
    <polygon points="667.0,329.4 644.0,369.2 598.0,369.2 575.0,329.4 598.0,289.5 644.0,289.5" />
    <polygon points="667.0,409.0 644.0,448.9 598.0,448.9 575.0,409.0 598.0,369.2 644.0,369.2" />
    <polygon points="667.0,488.7 644.0,528.6 598.0,528.6 575.0,488.7 598.0,448.9 644.0,448.9" />
    <polygon points="667.0,568.4 644.0,608.2 598.0,608.2 575.0,568.4 598.0,528.6 644.0,528.6" />
    <polygon points="667.0,648.1 644.0,687.9 598.0,687.9 575.0,648.1 598.0,608.2 644.0,608.2" />
    <polygon points="667.0,727.7 644.0,767.6 598.0,767.6 575.0,727.7 598.0,687.9 644.0,687.9" />
    <polygon points="667.0,807.4 644.0,847.3 598.0,847.3 575.0,807.4 598.0,767.6 644.0,767.6" />
    <polygon points="667.0,887.1 644.0,926.9 598.0,926.9 575.0,887.1 598.0,847.3 644.0,847.3" />
    <polygon points="667.0,966.8 644.0,1006.6 598.0,1006.6 575.0,966.8 598.0,926.9 644.0,926.9" />
    <polygon points="667.0,1046.4 644.0,1086.3 598.0,1086.3 575.0,1046.4 598.0,1006.6 644.0,1006.6" />
    <polygon points="667.0,1126.1 644.0,1166.0 598.0,1166.0 575.0,1126.1 598.0,1086.3 644.0,1086.3" />
    <polygon points="667.0,1205.8 644.0,1245.6 598.0,1245.6 575.0,1205.8 598.0,1166.0 644.0,1166.0" />
    <polygon points="736.0,-29.2 713.0,10.7 667.0,10.7 644.0,-29.2 667.0,-69.0 713.0,-69.0" />
    <polygon points="736.0,50.5 713.0,90.3 667.0,90.3 644.0,50.5 667.0,10.7 713.0,10.7" />
    <polygon points="736.0,130.2 713.0,170.0 667.0,170.0 644.0,130.2 667.0,90.3 713.0,90.3" />
    <polygon points="736.0,209.9 713.0,249.7 667.0,249.7 644.0,209.9 667.0,170.0 713.0,170.0" />
    <polygon points="736.0,289.5 713.0,329.4 667.0,329.4 644.0,289.5 667.0,249.7 713.0,249.7" />
    <polygon points="736.0,369.2 713.0,409.0 667.0,409.0 644.0,369.2 667.0,329.4 713.0,329.4" />
    <polygon points="736.0,448.9 713.0,488.7 667.0,488.7 644.0,448.9 667.0,409.0 713.0,409.0" />
    <polygon points="736.0,528.6 713.0,568.4 667.0,568.4 644.0,528.6 667.0,488.7 713.0,488.7" />
    <polygon points="736.0,608.2 713.0,648.1 667.0,648.1 644.0,608.2 667.0,568.4 713.0,568.4" />
    <polygon points="736.0,687.9 713.0,727.7 667.0,727.7 644.0,687.9 667.0,648.1 713.0,648.1" />
    <polygon points="736.0,767.6 713.0,807.4 667.0,807.4 644.0,767.6 667.0,727.7 713.0,727.7" />
    <polygon points="736.0,847.3 713.0,887.1 667.0,887.1 644.0,847.3 667.0,807.4 713.0,807.4" />
    <polygon points="736.0,926.9 713.0,966.8 667.0,966.8 644.0,926.9 667.0,887.1 713.0,887.1" />
    <polygon points="736.0,1006.6 713.0,1046.4 667.0,1046.4 644.0,1006.6 667.0,966.8 713.0,966.8" />
    <polygon points="736.0,1086.3 713.0,1126.1 667.0,1126.1 644.0,1086.3 667.0,1046.4 713.0,1046.4" />
    <polygon points="736.0,1166.0 713.0,1205.8 667.0,1205.8 644.0,1166.0 667.0,1126.1 713.0,1126.1" />
    <polygon points="736.0,1245.6 713.0,1285.5 667.0,1285.5 644.0,1245.6 667.0,1205.8 713.0,1205.8" />
    <polygon points="805.0,-69.0 782.0,-29.2 736.0,-29.2 713.0,-69.0 736.0,-108.8 782.0,-108.8" />
    <polygon points="805.0,10.7 782.0,50.5 736.0,50.5 713.0,10.7 736.0,-29.2 782.0,-29.2" />
    <polygon points="805.0,90.3 782.0,130.2 736.0,130.2 713.0,90.3 736.0,50.5 782.0,50.5" />
    <polygon points="805.0,170.0 782.0,209.9 736.0,209.9 713.0,170.0 736.0,130.2 782.0,130.2" />
    <polygon points="805.0,249.7 782.0,289.5 736.0,289.5 713.0,249.7 736.0,209.9 782.0,209.9" />
    <polygon points="805.0,329.4 782.0,369.2 736.0,369.2 713.0,329.4 736.0,289.5 782.0,289.5" />
    <polygon points="805.0,409.0 782.0,448.9 736.0,448.9 713.0,409.0 736.0,369.2 782.0,369.2" />
    <polygon points="805.0,488.7 782.0,528.6 736.0,528.6 713.0,488.7 736.0,448.9 782.0,448.9" />
    <polygon points="805.0,568.4 782.0,608.2 736.0,608.2 713.0,568.4 736.0,528.6 782.0,528.6" />
    <polygon points="805.0,648.1 782.0,687.9 736.0,687.9 713.0,648.1 736.0,608.2 782.0,608.2" />
    <polygon points="805.0,727.7 782.0,767.6 736.0,767.6 713.0,727.7 736.0,687.9 782.0,687.9" />
    <polygon points="805.0,807.4 782.0,847.3 736.0,847.3 713.0,807.4 736.0,767.6 782.0,767.6" />
    <polygon points="805.0,887.1 782.0,926.9 736.0,926.9 713.0,887.1 736.0,847.3 782.0,847.3" />
    <polygon points="805.0,966.8 782.0,1006.6 736.0,1006.6 713.0,966.8 736.0,926.9 782.0,926.9" />
    <polygon points="805.0,1046.4 782.0,1086.3 736.0,1086.3 713.0,1046.4 736.0,1006.6 782.0,1006.6" />
    <polygon points="805.0,1126.1 782.0,1166.0 736.0,1166.0 713.0,1126.1 736.0,1086.3 782.0,1086.3" />
    <polygon points="805.0,1205.8 782.0,1245.6 736.0,1245.6 713.0,1205.8 736.0,1166.0 782.0,1166.0" />
    <polygon points="874.0,-29.2 851.0,10.7 805.0,10.7 782.0,-29.2 805.0,-69.0 851.0,-69.0" />
    <polygon points="874.0,50.5 851.0,90.3 805.0,90.3 782.0,50.5 805.0,10.7 851.0,10.7" />
    <polygon points="874.0,130.2 851.0,170.0 805.0,170.0 782.0,130.2 805.0,90.3 851.0,90.3" />
    <polygon points="874.0,209.9 851.0,249.7 805.0,249.7 782.0,209.9 805.0,170.0 851.0,170.0" />
    <polygon points="874.0,369.2 851.0,409.0 805.0,409.0 782.0,369.2 805.0,329.4 851.0,329.4" />
    <polygon points="874.0,448.9 851.0,488.7 805.0,488.7 782.0,448.9 805.0,409.0 851.0,409.0" />
    <polygon points="874.0,528.6 851.0,568.4 805.0,568.4 782.0,528.6 805.0,488.7 851.0,488.7" />
    <polygon points="874.0,608.2 851.0,648.1 805.0,648.1 782.0,608.2 805.0,568.4 851.0,568.4" />
    <polygon points="874.0,687.9 851.0,727.7 805.0,727.7 782.0,687.9 805.0,648.1 851.0,648.1" />
    <polygon points="874.0,767.6 851.0,807.4 805.0,807.4 782.0,767.6 805.0,727.7 851.0,727.7" />
    <polygon points="874.0,926.9 851.0,966.8 805.0,966.8 782.0,926.9 805.0,887.1 851.0,887.1" />
    <polygon points="874.0,1006.6 851.0,1046.4 805.0,1046.4 782.0,1006.6 805.0,966.8 851.0,966.8" />
    <polygon points="874.0,1086.3 851.0,1126.1 805.0,1126.1 782.0,1086.3 805.0,1046.4 851.0,1046.4" />
    <polygon points="874.0,1166.0 851.0,1205.8 805.0,1205.8 782.0,1166.0 805.0,1126.1 851.0,1126.1" />
  </g>
  <g fill="none" stroke="oklch(0.68 0.24 27)" stroke-width="2.2" opacity="0.55" filter="url(#hexGlow)">
    <polygon points="-25.8,488.7 -47.4,526.2 -90.6,526.2 -112.2,488.7 -90.6,451.3 -47.4,451.3" />
    <polygon points="43.2,608.2 21.6,645.7 -21.6,645.7 -43.2,608.2 -21.6,570.8 21.6,570.8" />
    <polygon points="112.2,329.4 90.6,366.8 47.4,366.8 25.8,329.4 47.4,291.9 90.6,291.9" />
    <polygon points="250.2,90.3 228.6,127.8 185.4,127.8 163.8,90.3 185.4,52.9 228.6,52.9" />
    <polygon points="250.2,170.0 228.6,207.5 185.4,207.5 163.8,170.0 185.4,132.6 228.6,132.6" />
    <polygon points="526.2,-69.0 504.6,-31.6 461.4,-31.6 439.8,-69.0 461.4,-106.4 504.6,-106.4" />
    <polygon points="664.2,170.0 642.6,207.5 599.4,207.5 577.8,170.0 599.4,132.6 642.6,132.6" />
    <polygon points="871.2,289.5 849.6,327.0 806.4,327.0 784.8,289.5 806.4,252.1 849.6,252.1" />
    <polygon points="871.2,847.3 849.6,884.7 806.4,884.7 784.8,847.3 806.4,809.8 849.6,809.8" />
    <polygon points="871.2,1245.6 849.6,1283.1 806.4,1283.1 784.8,1245.6 806.4,1208.2 849.6,1208.2" />
  </g>
  <g fill="oklch(0.68 0.24 27)" opacity="0.05">
    <polygon points="-27.6,488.7 -48.3,524.6 -89.7,524.6 -110.4,488.7 -89.7,452.9 -48.3,452.9" />
    <polygon points="41.4,608.2 20.7,644.1 -20.7,644.1 -41.4,608.2 -20.7,572.4 20.7,572.4" />
    <polygon points="110.4,329.4 89.7,365.2 48.3,365.2 27.6,329.4 48.3,293.5 89.7,293.5" />
    <polygon points="248.4,90.3 227.7,126.2 186.3,126.2 165.6,90.3 186.3,54.5 227.7,54.5" />
    <polygon points="248.4,170.0 227.7,205.9 186.3,205.9 165.6,170.0 186.3,134.2 227.7,134.2" />
    <polygon points="524.4,-69.0 503.7,-33.1 462.3,-33.1 441.6,-69.0 462.3,-104.9 503.7,-104.9" />
    <polygon points="662.4,170.0 641.7,205.9 600.3,205.9 579.6,170.0 600.3,134.2 641.7,134.2" />
    <polygon points="869.4,289.5 848.7,325.4 807.3,325.4 786.6,289.5 807.3,253.7 848.7,253.7" />
    <polygon points="869.4,847.3 848.7,883.1 807.3,883.1 786.6,847.3 807.3,811.4 848.7,811.4" />
    <polygon points="869.4,1245.6 848.7,1281.5 807.3,1281.5 786.6,1245.6 807.3,1209.8 848.7,1209.8" />
  </g>
</svg>
